<?xml version="1.0" encoding="UTF-8"?><svg id="Layer_1" xmlns="http://www.w3.org/2000/svg" viewBox="0 0 431.18 156.21"><defs><style>.cls-1,.cls-2,.cls-3,.cls-4,.cls-5{fill:#faa549;}.cls-2{stroke-width:.52px;}.cls-2,.cls-3{stroke:#faa549;stroke-miterlimit:10;}.cls-3{stroke-width:1.03px;}.cls-6{letter-spacing:-.03em;}.cls-4{font-size:57.91px;}.cls-4,.cls-5{font-family:RacingSansOne-Regular, 'Racing Sans One';}.cls-5{font-size:115.82px;}</style></defs><text class="cls-5" transform="translate(0 94.68)"><tspan x="0" y="0">BOB</tspan><tspan class="cls-6" x="223.41" y="0">A</tspan></text><text class="cls-4" transform="translate(88.47 139.76)"><tspan x="0" y="0">gaming</tspan></text><g><path class="cls-3" d="M374.61,114.09c-.25-.25-1.37-1.4-1.35-2.97,.02-1.51,1.07-2.64,1.73-3.29,6.95-6.87,18.55-11.27,18.55-11.27,3.53-1.34,6.1-2.09,8.22-.86,1.24,.73,1.85,1.86,2.37,2.87,.35,.68,2.47,4.74,.96,9.24-1.36,4.08-4.84,5.98-6.55,6.91-4.35,2.38-5.51,.52-18.59,.9-1.14,.03-3.67,.12-5.35-1.52Z"/><path class="cls-3" d="M328.45,102.2c.51,1.99,1.18,4.49,3.1,7.23,1.72,2.45,3.74,4.08,5.37,5.13,1.09,.7,2.36,1.06,3.66,1.06h14.88c.73,0,1.45-.12,2.13-.37,.85-.31,1.88-.83,2.88-1.69,1.02-.87,1.71-1.84,2.18-2.72,.7-1.3,.51-2.91-.47-4.02-3.69-4.17-7.06-7.79-9.97-10.81-1.82-1.89-5.19-5.34-10.32-8.26-2.59-1.47-4.72-2.29-7.23-2.06-.79,.07-3.29,.3-5.16,2.06-3.81,3.61-1.97,10.79-1.03,14.45Z"/><path class="cls-3" d="M316.06,103.37c0,.57-.35,1.08-.88,1.29-.83,.32-1.94,.62-3.25,.64-3.7,.04-6.25-2.23-7.23-3.1-.76-.68-1.9-1.85-2.86-3.66-.16-.3-.24-.65-.24-1v-17.6c0-.3,.08-.59,.23-.85,.69-1.13,1.63-2.42,2.86-3.74,1.52-1.62,3.06-2.8,4.37-3.64,.49-.32,.8-.84,.84-1.43,.24-3.83,1.12-9.48,4.08-15.58,1.95-4.01,4.25-7.08,6.19-9.29v-3.1c2.51-2.83,18.72-20.42,45.43-20.65,27.32-.23,44.01,17.9,46.46,20.65v3.1c2.15,2.02,5.89,6.09,8.26,12.39,1.91,5.06,2.18,9.58,2.1,12.51-.01,.56,.26,1.08,.73,1.38,1.04,.67,2.19,1.53,3.37,2.63,1.77,1.66,3.02,3.36,3.87,4.74,.17,.28,.26,.6,.26,.92v17.56c0,.36-.08,.71-.24,1.03-.61,1.25-1.78,3.13-3.89,4.66-3.38,2.44-7.1,2.47-9.07,2.26-.71-.08-1.25-.67-1.25-1.38v-32.02c0-.57-.06-1.15-.2-1.71-5.57-22.56-25.49-38.74-48.32-39.42-23.92-.72-45.52,15.73-51.41,39.37-.15,.59-.21,1.2-.21,1.81v31.23Z"/><g><path class="cls-1" d="M361.49,128.01c1.03-2.41,2.06-4.82,3.1-7.23"/><path class="cls-1" d="M361.35,127.95c-.46-.82-.6-1.54-.51-2.36,.04-.69,.68-1.13,1.06-1.68,.77-1.12,1.61-2.18,2.55-3.19,0,0,.28,.12,.28,.12-.08,1.37-.27,2.71-.55,4.04-.14,.65-.02,1.42-.49,1.93-.53,.63-1.15,1.03-2.06,1.26,0,0-.28-.12-.28-.12h0Z"/></g><g><path class="cls-1" d="M373.88,128.01c-1.03-2.41-2.06-4.82-3.1-7.23"/><path class="cls-1" d="M373.74,128.08c-.91-.23-1.52-.63-2.06-1.26-.47-.51-.35-1.28-.49-1.93-.28-1.33-.47-2.67-.55-4.04,0,0,.28-.12,.28-.12,.93,1,1.78,2.07,2.55,3.19,.38,.55,1.01,.99,1.06,1.68,.09,.82-.05,1.54-.51,2.36,0,0-.28,.12-.28,.12h0Z"/></g><path class="cls-2" d="M361.49,144.53c.17-1.59,7.72,.48,14.45-4.13,5.54-3.79,5.96-8.97,10.32-9.29,2.58-.19,4.95,1.43,6.19,3.1,2.29,3.06,1.76,7.56,0,10.32-4.32,6.78-17.06,4.71-20.65,4.13-5.01-.81-10.47-2.77-10.32-4.13Z"/></g></svg>