<?xml version="1.0" encoding="UTF-8"?><svg id="Layer_1" xmlns="http://www.w3.org/2000/svg" viewBox="0 0 370.41 421.3"><defs><style>.cls-1{stroke-width:1.85px;}.cls-1,.cls-2,.cls-3{fill:#faa549;}.cls-1,.cls-3{stroke:#faa549;stroke-miterlimit:10;}.cls-3{stroke-width:.93px;}</style></defs><g><path class="cls-2" d="M90.64,270.29c0,2.86-.42,5.42-1.26,7.69-.84,2.27-2,4.29-3.47,6.06-1.48,1.77-3.2,3.35-5.18,4.73-1.97,1.38-4.14,2.66-6.51,3.84,1.08,.39,2.37,1.01,3.84,1.85,1.48,.84,2.91,2,4.29,3.48,1.38,1.48,2.54,3.38,3.47,5.69,.94,2.32,1.4,5.15,1.4,8.5,0,4.44-.94,8.53-2.81,12.27-1.87,3.75-4.66,6.98-8.35,9.69-3.7,2.71-8.23,4.83-13.6,6.36-5.37,1.53-11.56,2.29-18.56,2.29H0l19.96-93.9H58.85c3.84,0,7.66,.27,11.46,.81,3.79,.54,7.19,1.6,10.2,3.18,3.01,1.58,5.45,3.77,7.32,6.58,1.87,2.81,2.81,6.43,2.81,10.87Zm-50.87,63.14c2.96,0,5.42-.84,7.39-2.51,1.97-1.68,3.6-3.75,4.88-6.21,1.28-2.46,2.19-5.05,2.74-7.76,.54-2.71,.81-5.1,.81-7.17,0-3.45-.72-6.19-2.14-8.21-1.43-2.02-3.72-3.03-6.88-3.03h-5.47l-7.25,34.9h5.91Zm10.65-45.25c2.17,0,4.02-.64,5.54-1.92,1.53-1.28,2.78-2.88,3.77-4.81,.98-1.92,1.72-3.99,2.22-6.21,.49-2.22,.74-4.21,.74-5.99,0-2.86-.67-5.3-2-7.32-1.33-2.02-3.43-3.03-6.28-3.03h-4.44l-6.36,29.28h6.8Z"/><path class="cls-2" d="M152.75,247.37c8.48,0,15.35,1.09,20.63,3.25,5.27,2.17,9.44,5.52,12.5,10.05,1.97,3.06,3.5,6.51,4.58,10.35,1.08,3.84,1.62,8.28,1.62,13.31,0,4.34-.39,8.68-1.18,13.01-.79,4.34-1.9,8.5-3.33,12.5-1.43,3.99-3.16,7.74-5.17,11.24-2.02,3.5-4.27,6.58-6.73,9.24-4.63,5.03-9.98,8.55-16.04,10.57-6.06,2.02-13.53,3.03-22.4,3.03s-15.48-.89-20.7-2.66c-5.23-1.77-9.37-4.63-12.42-8.58-2.17-2.76-3.87-6.26-5.1-10.5-1.23-4.24-1.85-9.56-1.85-15.97,0-10.94,1.95-20.72,5.84-29.35,3.89-8.62,9.44-15.45,16.64-20.48,4.34-3.05,9.17-5.32,14.49-6.8s11.53-2.22,18.63-2.22Zm-16.71,86.21c2.27,0,4.41-1.01,6.43-3.03,2.02-2.02,3.89-4.73,5.62-8.13,1.72-3.4,3.3-7.27,4.73-11.61,1.43-4.34,2.64-8.82,3.62-13.46,.98-4.63,1.75-9.24,2.29-13.83,.54-4.58,.81-8.75,.81-12.49,0-5.12-.52-8.65-1.55-10.57-1.04-1.92-2.54-2.88-4.51-2.88-2.27,0-4.44,.99-6.51,2.96-2.07,1.97-4.02,4.61-5.84,7.91-1.83,3.3-3.45,7.1-4.88,11.39-1.43,4.29-2.66,8.7-3.7,13.23-1.04,4.54-1.83,9.02-2.37,13.46-.54,4.44-.81,8.53-.81,12.27,0,5.62,.61,9.49,1.85,11.61,1.23,2.12,2.83,3.18,4.81,3.18Z"/><path class="cls-2" d="M283.91,270.29c0,2.86-.42,5.42-1.26,7.69-.84,2.27-2,4.29-3.48,6.06-1.48,1.77-3.2,3.35-5.17,4.73-1.97,1.38-4.14,2.66-6.51,3.84,1.08,.39,2.37,1.01,3.84,1.85,1.48,.84,2.91,2,4.29,3.48,1.38,1.48,2.54,3.38,3.48,5.69,.94,2.32,1.4,5.15,1.4,8.5,0,4.44-.94,8.53-2.81,12.27-1.87,3.75-4.66,6.98-8.35,9.69-3.7,2.71-8.23,4.83-13.6,6.36-5.37,1.53-11.56,2.29-18.56,2.29h-43.92l19.96-93.9h38.89c3.84,0,7.66,.27,11.46,.81,3.79,.54,7.19,1.6,10.2,3.18,3.01,1.58,5.45,3.77,7.32,6.58,1.87,2.81,2.81,6.43,2.81,10.87Zm-50.87,63.14c2.96,0,5.42-.84,7.39-2.51,1.97-1.68,3.6-3.75,4.88-6.21,1.28-2.46,2.19-5.05,2.74-7.76,.54-2.71,.81-5.1,.81-7.17,0-3.45-.72-6.19-2.14-8.21-1.43-2.02-3.72-3.03-6.88-3.03h-5.47l-7.25,34.9h5.91Zm10.65-45.25c2.17,0,4.02-.64,5.54-1.92,1.53-1.28,2.78-2.88,3.77-4.81,.98-1.92,1.72-3.99,2.22-6.21,.49-2.22,.74-4.21,.74-5.99,0-2.86-.67-5.3-2-7.32-1.33-2.02-3.43-3.03-6.28-3.03h-4.44l-6.36,29.28h6.8Z"/><path class="cls-2" d="M367.16,342.74h-34.6l-2.07-23.51h-27.36l-10.5,23.51h-14.34l43.62-93.9h35.04l10.2,93.9Zm-59.15-34.31h21.44l-3.4-40.22-18.04,40.22Z"/></g><g><path class="cls-2" d="M143.12,368.51h11.98l-6.06,28.76c-.44,2.22-1.18,4.26-2.22,6.14-1.04,1.87-2.48,3.5-4.33,4.88-1.85,1.38-4.17,2.46-6.95,3.25-2.79,.79-6.17,1.18-10.17,1.18-.74,0-1.63-.01-2.66-.04-1.04-.03-2.1-.05-3.18-.07-1.08-.03-2.12-.06-3.1-.11-.99-.05-1.77-.1-2.37-.15l1.4-5.32c1.58,.25,3.19,.38,4.84,.41,1.65,.02,3.07,.04,4.25,.04,1.48,0,2.72-.14,3.73-.41,1.01-.27,1.85-.7,2.51-1.29,.67-.59,1.21-1.38,1.63-2.37,.42-.99,.75-2.19,1-3.62l.89-4.81h-.52c-.3,.44-.73,.97-1.29,1.59-.57,.62-1.29,1.21-2.18,1.77-.89,.57-1.94,1.04-3.14,1.4-1.21,.37-2.58,.55-4.1,.55-1.73,0-3.19-.26-4.4-.78-1.21-.52-2.18-1.23-2.92-2.14s-1.28-2-1.63-3.25c-.35-1.26-.52-2.62-.52-4.1,0-.64,.05-1.63,.15-2.96,.1-1.33,.33-2.83,.7-4.51,.37-1.67,.91-3.39,1.63-5.14,.71-1.75,1.68-3.34,2.88-4.77,1.21-1.43,2.71-2.61,4.51-3.55,1.8-.94,3.98-1.41,6.54-1.41,.79,0,1.65,.07,2.59,.22,.94,.15,1.85,.42,2.74,.81,.89,.4,1.68,.96,2.37,1.7,.69,.74,1.23,1.7,1.63,2.88h.44l3.33-4.81Zm-8.28,6.43c-1.18,0-2.17,.63-2.96,1.89-.79,1.26-1.43,2.72-1.92,4.4-.49,1.68-.85,3.34-1.07,4.99-.22,1.65-.33,2.87-.33,3.66,0,.99,.16,1.81,.48,2.48,.32,.67,.9,1,1.74,1,.49,0,.97-.12,1.44-.37,.47-.25,.91-.53,1.33-.85,.42-.32,.79-.65,1.11-1,.32-.34,.55-.62,.7-.81l2.74-12.94c-.4-.54-.85-1.08-1.37-1.63-.52-.54-1.15-.81-1.89-.81Z"/><path class="cls-2" d="M161.01,371.24c2.51-1.23,5.09-2.13,7.73-2.7,2.64-.57,5.58-.85,8.83-.85s5.77,.25,7.84,.74c2.07,.49,3.72,1.21,4.95,2.14,1.23,.94,2.09,2.05,2.59,3.33,.49,1.28,.74,2.74,.74,4.36,0,.94-.06,1.95-.18,3.03-.12,1.08-.26,2-.41,2.74l-3.48,16.27h-11.9l-1.33-4.73h-.44c-1.58,1.73-3.41,3.04-5.51,3.96-2.1,.91-4.18,1.37-6.25,1.37-1.18,0-2.34-.17-3.47-.52-1.13-.34-2.14-.88-3.03-1.59-.89-.71-1.6-1.63-2.14-2.74-.54-1.11-.81-2.45-.81-4.03,0-2.56,.7-4.6,2.11-6.1,1.41-1.5,3.25-2.64,5.55-3.4,2.29-.76,4.88-1.24,7.76-1.44,2.88-.2,5.78-.3,8.69-.3,.1-.49,.22-1.19,.37-2.11,.15-.91,.22-1.71,.22-2.4,0-.89-.23-1.71-.7-2.48-.47-.76-1.44-1.15-2.92-1.15-1.73,0-2.99,.51-3.81,1.52-.81,1.01-1.34,2.23-1.59,3.66h-10.79l1.4-6.58Zm17,13.01h-1.33c-1.43,0-2.65,.18-3.66,.55-1.01,.37-1.82,.85-2.44,1.44-.62,.59-1.07,1.26-1.37,2-.3,.74-.44,1.48-.44,2.22,0,1.18,.31,2.07,.92,2.66,.62,.59,1.34,.89,2.18,.89,1.04,0,2.06-.37,3.07-1.11,1.01-.74,1.64-1.72,1.89-2.96l1.18-5.69Z"/><path class="cls-2" d="M216.31,373.24c1.04-.99,2.19-1.9,3.47-2.74,1.13-.69,2.49-1.33,4.07-1.92,1.58-.59,3.35-.89,5.32-.89,2.37,0,4.13,.54,5.29,1.63,1.16,1.08,1.81,2.42,1.96,3.99h.44c1.13-1.04,2.37-1.97,3.7-2.81,1.13-.69,2.46-1.33,3.99-1.92,1.53-.59,3.15-.89,4.88-.89,2.56,0,4.65,.7,6.25,2.11,1.6,1.41,2.4,3.22,2.4,5.43,0,1.13-.2,2.64-.59,4.51-.4,1.87-.84,3.92-1.33,6.14l-3.11,14.42h-14.57l3.99-19.3c.15-.74,.3-1.45,.44-2.14,.15-.69,.22-1.26,.22-1.7,0-.69-.2-1.27-.59-1.74-.39-.47-.96-.7-1.7-.7-.94,0-1.81,.33-2.62,1-.81,.67-1.44,1.22-1.89,1.66l-4.81,22.92h-13.83l4.07-19.3c.1-.64,.22-1.29,.37-1.96,.15-.67,.22-1.27,.22-1.81,0-.74-.18-1.34-.55-1.81-.37-.47-.92-.7-1.66-.7-.89,0-1.74,.32-2.55,.96-.81,.64-1.44,1.18-1.89,1.63l-4.88,22.99h-15.08l6.73-31.79h12.05l1.33,4.73h.44Z"/><path class="cls-2" d="M274.42,400.3h-15.01l6.73-31.79h15.16l-6.88,31.79Zm8.8-41.48c0,1.13-.23,2.12-.7,2.96-.47,.84-1.08,1.55-1.85,2.14-.76,.59-1.64,1.04-2.62,1.33s-2,.44-3.03,.44c-1.97,0-3.62-.47-4.95-1.4-1.33-.94-2-2.41-2-4.44,0-1.08,.22-2.06,.67-2.92,.44-.86,1.05-1.58,1.81-2.14,.76-.57,1.65-1,2.66-1.29,1.01-.29,2.06-.44,3.14-.44,1.92,0,3.55,.47,4.88,1.41s2,2.39,2,4.36Z"/><path class="cls-2" d="M301.63,373.24c1.04-.99,2.19-1.9,3.47-2.74,1.13-.69,2.46-1.33,3.99-1.92,1.53-.59,3.23-.89,5.1-.89,2.56,0,4.68,.65,6.36,1.96,1.68,1.31,2.51,3.09,2.51,5.36,0,.64-.07,1.42-.22,2.33-.15,.91-.32,1.86-.52,2.85-.2,.99-.41,1.99-.63,2.99-.22,1.01-.41,1.91-.55,2.7l-3.11,14.42h-15.01l4.07-19.3c.1-.64,.22-1.29,.37-1.96,.15-.67,.22-1.27,.22-1.81,0-.74-.18-1.34-.55-1.81-.37-.47-.92-.7-1.66-.7-.89,0-1.74,.32-2.55,.96-.81,.64-1.44,1.18-1.89,1.63l-4.88,22.99h-15.08l6.73-31.79h12.05l1.33,4.73h.44Z"/><path class="cls-2" d="M355.3,368.51h11.98l-6.06,28.76c-.44,2.22-1.18,4.26-2.22,6.14-1.04,1.87-2.48,3.5-4.33,4.88-1.85,1.38-4.17,2.46-6.95,3.25-2.79,.79-6.17,1.18-10.17,1.18-.74,0-1.63-.01-2.66-.04-1.04-.03-2.1-.05-3.18-.07-1.08-.03-2.12-.06-3.11-.11-.99-.05-1.77-.1-2.37-.15l1.4-5.32c1.58,.25,3.19,.38,4.84,.41,1.65,.02,3.07,.04,4.25,.04,1.48,0,2.72-.14,3.73-.41,1.01-.27,1.85-.7,2.51-1.29,.67-.59,1.21-1.38,1.63-2.37,.42-.99,.75-2.19,1-3.62l.89-4.81h-.52c-.3,.44-.73,.97-1.29,1.59-.57,.62-1.29,1.21-2.18,1.77-.89,.57-1.94,1.04-3.14,1.4-1.21,.37-2.58,.55-4.1,.55-1.73,0-3.19-.26-4.4-.78s-2.18-1.23-2.92-2.14-1.28-2-1.63-3.25-.52-2.62-.52-4.1c0-.64,.05-1.63,.15-2.96,.1-1.33,.33-2.83,.7-4.51,.37-1.67,.91-3.39,1.63-5.14,.71-1.75,1.67-3.34,2.88-4.77,1.21-1.43,2.71-2.61,4.51-3.55,1.8-.94,3.98-1.41,6.54-1.41,.79,0,1.65,.07,2.59,.22,.94,.15,1.85,.42,2.74,.81,.89,.4,1.67,.96,2.37,1.7s1.23,1.7,1.63,2.88h.44l3.33-4.81Zm-8.28,6.43c-1.18,0-2.17,.63-2.96,1.89-.79,1.26-1.43,2.72-1.92,4.4-.49,1.68-.85,3.34-1.07,4.99s-.33,2.87-.33,3.66c0,.99,.16,1.81,.48,2.48,.32,.67,.9,1,1.74,1,.49,0,.97-.12,1.44-.37,.47-.25,.91-.53,1.33-.85,.42-.32,.79-.65,1.11-1,.32-.34,.55-.62,.7-.81l2.74-12.94c-.4-.54-.85-1.08-1.37-1.63-.52-.54-1.15-.81-1.88-.81Z"/></g><path class="cls-1" d="M206.44,166.38c-.45-.44-2.45-2.5-2.41-5.32,.03-2.71,1.92-4.72,3.1-5.9,12.44-12.31,33.21-20.18,33.21-20.18,6.32-2.4,10.92-3.75,14.71-1.53,2.22,1.3,3.31,3.33,4.25,5.13,.63,1.22,4.42,8.48,1.72,16.55-2.44,7.3-8.66,10.7-11.72,12.37-7.79,4.26-9.87,.92-33.28,1.61-2.04,.06-6.58,.22-9.58-2.72Z"/><path class="cls-1" d="M123.8,145.1c.92,3.57,2.1,8.03,5.55,12.94,3.08,4.39,6.69,7.31,9.61,9.19,1.95,1.26,4.23,1.9,6.55,1.9h26.64c1.3,0,2.59-.21,3.81-.67,1.51-.56,3.36-1.49,5.16-3.03,1.82-1.56,3.06-3.3,3.9-4.88,1.25-2.34,.91-5.2-.84-7.19-6.6-7.47-12.64-13.94-17.85-19.35-3.25-3.38-9.29-9.56-18.48-14.79-4.63-2.63-8.44-4.1-12.94-3.7-1.41,.13-5.9,.54-9.24,3.7-6.83,6.45-3.53,19.32-1.85,25.88Z"/><path class="cls-1" d="M101.62,147.19c0,1.03-.63,1.94-1.58,2.31-1.49,.58-3.48,1.12-5.81,1.14-6.62,.07-11.2-4-12.94-5.55-1.37-1.21-3.4-3.32-5.12-6.55-.29-.54-.43-1.17-.43-1.79v-31.51c0-.54,.14-1.06,.42-1.52,1.24-2.02,2.91-4.34,5.12-6.7,2.72-2.9,5.48-5.01,7.82-6.52,.88-.57,1.44-1.51,1.51-2.56,.44-6.86,2.01-16.98,7.31-27.89,3.48-7.17,7.6-12.68,11.09-16.64v-5.55C113.51,32.84,142.52,1.33,190.34,.93c48.91-.41,78.79,32.04,83.18,36.97v5.55c3.84,3.62,10.54,10.9,14.79,22.18,3.41,9.06,3.9,17.14,3.76,22.4-.03,1,.46,1.93,1.3,2.47,1.86,1.19,3.93,2.73,6.03,4.7,3.17,2.98,5.4,6.01,6.93,8.48,.31,.5,.46,1.07,.46,1.65v31.44c0,.64-.14,1.27-.42,1.84-1.09,2.23-3.19,5.6-6.97,8.33-6.06,4.37-12.72,4.41-16.24,4.04-1.27-.13-2.24-1.2-2.24-2.48v-57.32c0-1.03-.11-2.06-.36-3.05-9.97-40.38-45.63-69.35-86.51-70.58-42.82-1.28-81.5,28.17-92.03,70.49-.26,1.06-.38,2.15-.38,3.24v55.9Z"/><g><path class="cls-2" d="M182.95,191.31c1.85-4.31,3.7-8.63,5.55-12.94"/><path class="cls-2" d="M182.69,191.2c-1.01-1.91-1.51-4.1-.19-5.82,.4-.47,.84-.92,1.18-1.41,1.35-1.96,2.92-3.96,4.56-5.7,0,0,.51,.22,.51,.22-.06,1.25-.22,2.46-.37,3.67-.12,.9-.43,2.68-.62,3.56-.25,1.15-.03,2.5-.88,3.45-.94,1.13-2.07,1.83-3.68,2.25,0,0-.51-.22-.51-.22h0Z"/></g><g><path class="cls-2" d="M205.13,191.31c-1.85-4.31-3.7-8.63-5.55-12.94"/><path class="cls-2" d="M204.87,191.42c-2.08-.59-4.01-1.74-4.35-3.88-.06-.61-.09-1.24-.21-1.82-.49-2.33-.85-4.85-.99-7.23,0,0,.51-.22,.51-.22,.86,.91,1.63,1.85,2.41,2.8,.57,.7,1.65,2.16,2.15,2.91,.66,.97,1.79,1.75,1.9,3.02,.17,1.46-.1,2.76-.91,4.22,0,0-.51,.22-.51,.22h0Z"/></g><path class="cls-3" d="M182.95,220.88c.3-2.85,13.82,.85,25.88-7.39,9.92-6.78,10.68-16.06,18.48-16.64,4.61-.34,8.86,2.56,11.09,5.55,4.1,5.47,3.15,13.54,0,18.48-7.73,12.14-30.54,8.44-36.97,7.39-8.97-1.46-18.74-4.96-18.48-7.39Z"/></svg>