<?xml version="1.0" encoding="UTF-8"?><svg id="Layer_1" xmlns="http://www.w3.org/2000/svg" viewBox="0 0 453.86 190.09"><defs><style>.cls-1,.cls-2,.cls-3{fill:#faa549;}.cls-2{stroke-width:.36px;}.cls-2,.cls-3{stroke:#faa549;stroke-miterlimit:10;}.cls-3{stroke-width:.71px;}</style></defs><g><path class="cls-1" d="M187.21,46.16c0,2.73-.4,5.17-1.2,7.33-.8,2.16-1.9,4.09-3.31,5.78-1.41,1.69-3.05,3.2-4.93,4.51-1.88,1.32-3.95,2.54-6.2,3.66,1.03,.38,2.25,.96,3.66,1.76,1.41,.8,2.77,1.9,4.09,3.31,1.31,1.41,2.42,3.22,3.31,5.43,.89,2.21,1.34,4.91,1.34,8.1,0,4.23-.89,8.13-2.68,11.7-1.79,3.57-4.44,6.65-7.96,9.23-3.52,2.59-7.85,4.61-12.97,6.06-5.12,1.46-11.02,2.18-17.69,2.18h-41.86L119.84,25.72h37.07c3.66,0,7.3,.26,10.92,.78,3.62,.52,6.86,1.53,9.72,3.03,2.87,1.5,5.19,3.59,6.98,6.27,1.78,2.68,2.68,6.13,2.68,10.36Zm-48.48,60.18c2.82,0,5.17-.8,7.05-2.4,1.88-1.6,3.43-3.57,4.65-5.92,1.22-2.35,2.09-4.81,2.61-7.4,.52-2.58,.78-4.86,.78-6.83,0-3.29-.68-5.9-2.04-7.82-1.36-1.92-3.55-2.89-6.55-2.89h-5.21l-6.91,33.26h5.64Zm10.15-43.13c2.07,0,3.83-.61,5.28-1.83,1.46-1.22,2.65-2.75,3.59-4.58,.94-1.83,1.64-3.81,2.11-5.92,.47-2.11,.7-4.02,.7-5.71,0-2.72-.63-5.05-1.9-6.98-1.27-1.92-3.27-2.89-5.99-2.89h-4.23l-6.06,27.91h6.48Z"/><path class="cls-1" d="M246.4,24.31c8.08,0,14.63,1.04,19.66,3.1,5.02,2.07,9,5.26,11.91,9.58,1.88,2.91,3.33,6.2,4.37,9.87,1.03,3.67,1.55,7.89,1.55,12.68,0,4.14-.38,8.27-1.13,12.4-.75,4.14-1.81,8.1-3.17,11.91-1.36,3.81-3.01,7.38-4.93,10.71-1.93,3.34-4.07,6.27-6.41,8.81-4.42,4.79-9.51,8.15-15.29,10.08s-12.9,2.89-21.35,2.89-14.75-.85-19.73-2.54c-4.98-1.69-8.93-4.42-11.84-8.17-2.07-2.63-3.69-5.96-4.86-10.01-1.18-4.04-1.76-9.11-1.76-15.22,0-10.43,1.85-19.75,5.57-27.98,3.71-8.22,9-14.73,15.86-19.52,4.13-2.91,8.74-5.07,13.81-6.48,5.07-1.41,10.99-2.11,17.76-2.11Zm-15.93,82.17c2.16,0,4.2-.96,6.13-2.89s3.71-4.51,5.36-7.75c1.64-3.24,3.15-6.93,4.51-11.06,1.36-4.13,2.51-8.41,3.45-12.83,.94-4.42,1.67-8.81,2.18-13.18,.52-4.37,.78-8.34,.78-11.91,0-4.88-.49-8.24-1.48-10.08-.99-1.83-2.42-2.75-4.3-2.75-2.16,0-4.23,.94-6.2,2.82-1.97,1.88-3.83,4.39-5.57,7.54-1.74,3.15-3.29,6.76-4.65,10.85-1.36,4.09-2.54,8.29-3.52,12.61-.99,4.32-1.74,8.6-2.26,12.83-.52,4.23-.77,8.13-.77,11.7,0,5.36,.59,9.04,1.76,11.06,1.17,2.02,2.7,3.03,4.58,3.03Z"/><path class="cls-1" d="M371.41,46.16c0,2.73-.4,5.17-1.2,7.33-.8,2.16-1.9,4.09-3.31,5.78-1.41,1.69-3.05,3.2-4.93,4.51-1.88,1.32-3.95,2.54-6.2,3.66,1.03,.38,2.25,.96,3.66,1.76,1.41,.8,2.77,1.9,4.09,3.31,1.31,1.41,2.42,3.22,3.31,5.43,.89,2.21,1.34,4.91,1.34,8.1,0,4.23-.89,8.13-2.68,11.7-1.79,3.57-4.44,6.65-7.96,9.23-3.52,2.59-7.85,4.61-12.97,6.06-5.12,1.46-11.02,2.18-17.69,2.18h-41.86l19.03-89.5h37.07c3.66,0,7.3,.26,10.92,.78,3.62,.52,6.86,1.53,9.72,3.03,2.86,1.5,5.19,3.59,6.98,6.27,1.78,2.68,2.68,6.13,2.68,10.36Zm-48.48,60.18c2.82,0,5.17-.8,7.05-2.4,1.88-1.6,3.43-3.57,4.65-5.92,1.22-2.35,2.09-4.81,2.61-7.4,.52-2.58,.78-4.86,.78-6.83,0-3.29-.68-5.9-2.04-7.82-1.36-1.92-3.55-2.89-6.55-2.89h-5.21l-6.91,33.26h5.64Zm10.15-43.13c2.07,0,3.83-.61,5.29-1.83,1.46-1.22,2.65-2.75,3.59-4.58,.94-1.83,1.64-3.81,2.11-5.92,.47-2.11,.7-4.02,.7-5.71,0-2.72-.63-5.05-1.9-6.98-1.27-1.92-3.27-2.89-5.99-2.89h-4.23l-6.06,27.91h6.48Z"/><path class="cls-1" d="M450.76,115.21h-32.98l-1.97-22.41h-26.07l-10.01,22.41h-13.67l41.58-89.5h33.4l9.72,89.5Zm-56.38-32.7h20.44l-3.24-38.33-17.19,38.33Z"/></g><g><path class="cls-1" d="M237.22,139.77h11.42l-5.78,27.41c-.42,2.11-1.13,4.06-2.11,5.85-.99,1.78-2.36,3.33-4.12,4.65-1.76,1.31-3.97,2.35-6.62,3.1-2.66,.75-5.88,1.13-9.69,1.13-.71,0-1.55-.01-2.54-.04-.99-.02-2-.05-3.03-.07-1.03-.02-2.02-.06-2.96-.11s-1.69-.09-2.25-.14l1.34-5.07c1.5,.23,3.04,.36,4.62,.39,1.57,.02,2.92,.04,4.05,.04,1.41,0,2.6-.13,3.56-.39,.96-.26,1.76-.67,2.4-1.23,.63-.56,1.15-1.32,1.55-2.25,.4-.94,.72-2.09,.95-3.45l.85-4.58h-.49c-.28,.42-.69,.93-1.23,1.51-.54,.59-1.23,1.15-2.08,1.69-.84,.54-1.84,.99-2.99,1.34-1.15,.35-2.46,.53-3.91,.53-1.65,0-3.04-.25-4.19-.74s-2.08-1.17-2.78-2.04-1.22-1.9-1.55-3.1c-.33-1.2-.49-2.5-.49-3.91,0-.61,.05-1.55,.14-2.82,.09-1.27,.32-2.7,.67-4.3,.35-1.6,.87-3.23,1.55-4.9,.68-1.67,1.6-3.18,2.75-4.55,1.15-1.36,2.58-2.49,4.3-3.38,1.71-.89,3.79-1.34,6.24-1.34,.75,0,1.57,.07,2.47,.21s1.76,.4,2.61,.78c.85,.38,1.6,.92,2.25,1.62,.66,.7,1.17,1.62,1.55,2.75h.42l3.17-4.58Zm-7.89,6.13c-1.13,0-2.07,.6-2.82,1.8-.75,1.2-1.36,2.6-1.83,4.19-.47,1.6-.81,3.18-1.02,4.76-.21,1.57-.32,2.74-.32,3.49,0,.94,.15,1.73,.46,2.36,.3,.63,.86,.95,1.66,.95,.47,0,.93-.12,1.38-.35,.45-.23,.87-.5,1.27-.81,.4-.3,.75-.62,1.06-.95,.3-.33,.53-.59,.67-.78l2.61-12.33c-.38-.52-.81-1.03-1.3-1.55-.49-.52-1.09-.78-1.8-.78Z"/><path class="cls-1" d="M254.27,142.38c2.4-1.17,4.85-2.03,7.36-2.57,2.51-.54,5.32-.81,8.42-.81s5.5,.24,7.47,.7c1.97,.47,3.55,1.15,4.72,2.04,1.17,.89,2,1.95,2.47,3.17,.47,1.22,.71,2.61,.71,4.16,0,.89-.06,1.86-.18,2.89-.12,1.03-.25,1.9-.39,2.61l-3.31,15.5h-11.34l-1.27-4.51h-.42c-1.5,1.64-3.25,2.9-5.25,3.77-2,.87-3.98,1.3-5.96,1.3-1.13,0-2.23-.17-3.31-.49-1.08-.33-2.04-.83-2.89-1.51-.85-.68-1.53-1.55-2.04-2.61-.52-1.06-.78-2.34-.78-3.84,0-2.44,.67-4.38,2.01-5.81,1.34-1.43,3.1-2.51,5.29-3.24s4.65-1.19,7.4-1.37,5.51-.28,8.28-.28c.09-.47,.21-1.14,.35-2.01,.14-.87,.21-1.63,.21-2.29,0-.85-.22-1.63-.67-2.36-.45-.73-1.37-1.09-2.78-1.09-1.64,0-2.85,.48-3.63,1.45s-1.28,2.13-1.51,3.49h-10.29l1.34-6.27Zm16.21,12.4h-1.27c-1.36,0-2.53,.18-3.49,.53-.96,.35-1.74,.81-2.33,1.37-.59,.56-1.02,1.2-1.3,1.9-.28,.71-.42,1.41-.42,2.11,0,1.13,.29,1.97,.88,2.54,.59,.56,1.28,.84,2.08,.84,.99,0,1.96-.35,2.92-1.06,.96-.71,1.56-1.64,1.8-2.82l1.13-5.43Z"/><path class="cls-1" d="M306.98,144.28c.99-.94,2.09-1.81,3.31-2.61,1.08-.66,2.37-1.27,3.88-1.83,1.5-.56,3.19-.85,5.07-.85,2.26,0,3.93,.52,5.04,1.55,1.1,1.03,1.73,2.3,1.87,3.81h.42c1.08-.99,2.25-1.88,3.52-2.68,1.08-.66,2.35-1.27,3.81-1.83,1.46-.56,3.01-.85,4.65-.85,2.44,0,4.43,.67,5.96,2.01,1.53,1.34,2.29,3.07,2.29,5.18,0,1.08-.19,2.51-.56,4.3-.38,1.79-.8,3.73-1.27,5.85l-2.96,13.74h-13.88l3.8-18.39c.14-.7,.28-1.38,.42-2.04,.14-.66,.21-1.2,.21-1.62,0-.66-.19-1.21-.56-1.66-.38-.45-.92-.67-1.62-.67-.89,0-1.73,.32-2.5,.95s-1.37,1.16-1.8,1.59l-4.58,21.84h-13.18l3.88-18.39c.09-.61,.21-1.23,.35-1.87,.14-.63,.21-1.21,.21-1.73,0-.7-.18-1.28-.53-1.73-.35-.45-.88-.67-1.59-.67-.85,0-1.66,.31-2.43,.92-.78,.61-1.38,1.13-1.8,1.55l-4.65,21.92h-14.38l6.41-30.3h11.49l1.27,4.51h.42Z"/><path class="cls-1" d="M362.37,170.07h-14.31l6.41-30.3h14.45l-6.55,30.3Zm8.39-39.53c0,1.08-.22,2.02-.67,2.82-.45,.8-1.03,1.48-1.76,2.04-.73,.56-1.56,.99-2.5,1.27-.94,.28-1.9,.42-2.89,.42-1.88,0-3.45-.45-4.72-1.34-1.27-.89-1.9-2.3-1.9-4.23,0-1.03,.21-1.96,.63-2.78,.42-.82,1-1.5,1.73-2.04s1.57-.95,2.54-1.23,1.96-.42,3-.42c1.83,0,3.38,.45,4.65,1.34,1.27,.89,1.9,2.28,1.9,4.16Z"/><path class="cls-1" d="M388.3,144.28c.99-.94,2.09-1.81,3.31-2.61,1.08-.66,2.35-1.27,3.81-1.83,1.46-.56,3.08-.85,4.86-.85,2.44,0,4.46,.62,6.06,1.87,1.6,1.25,2.4,2.95,2.4,5.11,0,.61-.07,1.35-.21,2.22-.14,.87-.31,1.77-.49,2.71s-.39,1.89-.6,2.85c-.21,.96-.39,1.82-.53,2.57l-2.96,13.74h-14.3l3.88-18.39c.09-.61,.21-1.23,.35-1.87,.14-.63,.21-1.21,.21-1.73,0-.7-.18-1.28-.53-1.73-.35-.45-.88-.67-1.59-.67-.85,0-1.66,.31-2.43,.92-.78,.61-1.38,1.13-1.8,1.55l-4.65,21.92h-14.38l6.41-30.3h11.49l1.27,4.51h.42Z"/><path class="cls-1" d="M439.46,139.77h11.42l-5.78,27.41c-.42,2.11-1.13,4.06-2.11,5.85-.99,1.78-2.36,3.33-4.12,4.65-1.76,1.31-3.97,2.35-6.62,3.1-2.66,.75-5.88,1.13-9.69,1.13-.71,0-1.55-.01-2.54-.04-.99-.02-2-.05-3.03-.07-1.03-.02-2.02-.06-2.96-.11s-1.69-.09-2.25-.14l1.34-5.07c1.5,.23,3.04,.36,4.62,.39,1.57,.02,2.92,.04,4.05,.04,1.41,0,2.6-.13,3.56-.39,.96-.26,1.76-.67,2.4-1.23,.63-.56,1.15-1.32,1.55-2.25,.4-.94,.72-2.09,.95-3.45l.85-4.58h-.49c-.28,.42-.69,.93-1.23,1.51-.54,.59-1.23,1.15-2.08,1.69-.84,.54-1.84,.99-2.99,1.34-1.15,.35-2.46,.53-3.91,.53-1.65,0-3.04-.25-4.19-.74s-2.08-1.17-2.78-2.04-1.22-1.9-1.55-3.1c-.33-1.2-.49-2.5-.49-3.91,0-.61,.05-1.55,.14-2.82,.09-1.27,.32-2.7,.67-4.3,.35-1.6,.87-3.23,1.55-4.9,.68-1.67,1.6-3.18,2.75-4.55,1.15-1.36,2.58-2.49,4.3-3.38,1.71-.89,3.79-1.34,6.24-1.34,.75,0,1.57,.07,2.47,.21s1.76,.4,2.61,.78c.85,.38,1.6,.92,2.25,1.62,.66,.7,1.17,1.62,1.55,2.75h.42l3.17-4.58Zm-7.89,6.13c-1.13,0-2.07,.6-2.82,1.8-.75,1.2-1.36,2.6-1.83,4.19-.47,1.6-.81,3.18-1.02,4.76-.21,1.57-.32,2.74-.32,3.49,0,.94,.15,1.73,.46,2.36,.3,.63,.86,.95,1.66,.95,.47,0,.93-.12,1.38-.35,.45-.23,.87-.5,1.27-.81,.4-.3,.75-.62,1.06-.95,.3-.33,.53-.59,.67-.78l2.61-12.33c-.38-.52-.81-1.03-1.3-1.55-.49-.52-1.09-.78-1.8-.78Z"/></g><g><path class="cls-3" d="M50.73,90.08c-.17-.17-.94-.96-.93-2.05,.01-1.05,.74-1.82,1.2-2.27,4.8-4.74,12.8-7.78,12.8-7.78,2.43-.92,4.21-1.44,5.67-.59,.86,.5,1.28,1.28,1.64,1.98,.24,.47,1.71,3.27,.66,6.38-.94,2.81-3.34,4.12-4.52,4.77-3,1.64-3.81,.36-12.83,.62-.79,.02-2.54,.08-3.69-1.05Z"/><path class="cls-3" d="M18.88,81.88c.35,1.38,.81,3.1,2.14,4.99,1.19,1.69,2.58,2.82,3.7,3.54,.75,.48,1.63,.73,2.53,.73h10.27c.5,0,1-.08,1.47-.26,.58-.22,1.3-.57,1.99-1.17,.7-.6,1.18-1.27,1.5-1.88,.48-.9,.35-2.01-.32-2.77-2.54-2.88-4.87-5.37-6.88-7.46-1.25-1.3-3.58-3.68-7.12-5.7-1.79-1.02-3.25-1.58-4.99-1.42-.54,.05-2.27,.21-3.56,1.42-2.63,2.49-1.36,7.45-.71,9.97Z"/><path class="cls-3" d="M10.33,82.68c0,.4-.24,.75-.61,.89-.58,.22-1.34,.43-2.24,.44-2.55,.03-4.32-1.54-4.99-2.14-.53-.47-1.31-1.28-1.97-2.52-.11-.21-.17-.45-.17-.69v-12.14c0-.21,.05-.41,.16-.59,.48-.78,1.12-1.67,1.98-2.58,1.05-1.12,2.11-1.93,3.02-2.51,.34-.22,.55-.58,.58-.99,.17-2.65,.77-6.54,2.82-10.75,1.34-2.77,2.93-4.89,4.27-6.41v-2.14c1.73-1.95,12.92-14.09,31.35-14.25,18.85-.16,30.37,12.35,32.06,14.25v2.14c1.48,1.4,4.06,4.2,5.7,8.55,1.32,3.49,1.5,6.61,1.45,8.63-.01,.39,.18,.74,.5,.95,.72,.46,1.51,1.05,2.32,1.81,1.22,1.15,2.08,2.32,2.67,3.27,.12,.19,.18,.41,.18,.64v12.12c0,.25-.05,.49-.16,.71-.42,.86-1.23,2.16-2.69,3.21-2.33,1.69-4.9,1.7-6.26,1.56-.49-.05-.86-.46-.86-.95v-22.09c0-.4-.04-.79-.14-1.18-3.84-15.57-17.59-26.73-33.35-27.2-16.5-.49-31.41,10.86-35.47,27.17-.1,.41-.15,.83-.15,1.25v21.55Z"/><g><path class="cls-1" d="M41.68,99.69c.71-1.66,1.42-3.32,2.14-4.99"/><path class="cls-1" d="M41.58,99.65c-.67-1.36-.42-1.91,.38-2.79,.53-.77,1.12-1.5,1.76-2.2,0,0,.2,.08,.2,.08-.06,.94-.19,1.87-.38,2.79-.09,.45-.01,.98-.34,1.33-.31,.36-.7,.68-1.42,.87l-.2-.08h0Z"/></g><g><path class="cls-1" d="M50.23,99.69c-.71-1.66-1.42-3.32-2.14-4.99"/><path class="cls-1" d="M50.13,99.73c-1.45-.45-1.67-1.01-1.76-2.2-.2-.92-.32-1.85-.38-2.79,0,0,.2-.08,.2-.08,.64,.7,1.23,1.43,1.76,2.2,.26,.38,.7,.68,.73,1.16,.05,.47,.01,.98-.35,1.63l-.2,.08h0Z"/></g><path class="cls-2" d="M41.68,111.09c.12-1.1,5.33,.33,9.97-2.85,3.82-2.61,4.12-6.19,7.12-6.41,1.78-.13,3.41,.99,4.27,2.14,1.58,2.11,1.21,5.22,0,7.12-2.98,4.68-11.77,3.25-14.25,2.85-3.46-.56-7.22-1.91-7.12-2.85Z"/></g></svg>