<?xml version="1.0" encoding="UTF-8"?><svg id="Layer_1" xmlns="http://www.w3.org/2000/svg" viewBox="0 0 453.86 190.09"><defs><style>.cls-1{font-size:140.94px;}.cls-1,.cls-2{font-family:RacingSansOne-Regular, 'Racing Sans One';}.cls-1,.cls-2,.cls-3,.cls-4,.cls-5{fill:#faa549;}.cls-2{font-size:70.47px;}.cls-4{stroke-width:.36px;}.cls-4,.cls-5{stroke:#faa549;stroke-miterlimit:10;}.cls-5{stroke-width:.71px;}.cls-6{letter-spacing:-.03em;}</style></defs><text class="cls-1" transform="translate(100.81 115.21)"><tspan x="0" y="0">BOB</tspan><tspan class="cls-6" x="271.86" y="0">A</tspan></text><text class="cls-2" transform="translate(208.47 170.07)"><tspan x="0" y="0">gaming</tspan></text><g><path class="cls-5" d="M50.73,90.08c-.17-.17-.94-.96-.93-2.05,.01-1.05,.74-1.82,1.2-2.27,4.8-4.74,12.8-7.78,12.8-7.78,2.43-.92,4.21-1.44,5.67-.59,.86,.5,1.28,1.28,1.64,1.98,.24,.47,1.71,3.27,.66,6.38-.94,2.81-3.34,4.12-4.52,4.77-3,1.64-3.81,.36-12.83,.62-.79,.02-2.54,.08-3.69-1.05Z"/><path class="cls-5" d="M18.88,81.88c.35,1.38,.81,3.1,2.14,4.99,1.19,1.69,2.58,2.82,3.7,3.54,.75,.48,1.63,.73,2.53,.73h10.27c.5,0,1-.08,1.47-.26,.58-.22,1.3-.57,1.99-1.17,.7-.6,1.18-1.27,1.5-1.88,.48-.9,.35-2.01-.32-2.77-2.54-2.88-4.87-5.37-6.88-7.46-1.25-1.3-3.58-3.68-7.12-5.7-1.79-1.02-3.25-1.58-4.99-1.42-.54,.05-2.27,.21-3.56,1.42-2.63,2.49-1.36,7.45-.71,9.97Z"/><path class="cls-5" d="M10.33,82.68c0,.4-.24,.75-.61,.89-.58,.22-1.34,.43-2.24,.44-2.55,.03-4.32-1.54-4.99-2.14-.53-.47-1.31-1.28-1.97-2.52-.11-.21-.17-.45-.17-.69v-12.14c0-.21,.05-.41,.16-.59,.48-.78,1.12-1.67,1.98-2.58,1.05-1.12,2.11-1.93,3.02-2.51,.34-.22,.55-.58,.58-.99,.17-2.65,.77-6.54,2.82-10.75,1.34-2.77,2.93-4.89,4.27-6.41v-2.14c1.73-1.95,12.92-14.09,31.35-14.25,18.85-.16,30.37,12.35,32.06,14.25v2.14c1.48,1.4,4.06,4.2,5.7,8.55,1.32,3.49,1.5,6.61,1.45,8.63-.01,.39,.18,.74,.5,.95,.72,.46,1.51,1.05,2.32,1.81,1.22,1.15,2.08,2.32,2.67,3.27,.12,.19,.18,.41,.18,.64v12.12c0,.25-.05,.49-.16,.71-.42,.86-1.23,2.16-2.69,3.21-2.33,1.69-4.9,1.7-6.26,1.56-.49-.05-.86-.46-.86-.95v-22.09c0-.4-.04-.79-.14-1.18-3.84-15.57-17.59-26.73-33.35-27.2-16.5-.49-31.41,10.86-35.47,27.17-.1,.41-.15,.83-.15,1.25v21.55Z"/><g><path class="cls-3" d="M41.68,99.69c.71-1.66,1.42-3.32,2.14-4.99"/><path class="cls-3" d="M41.58,99.65c-.67-1.36-.42-1.91,.38-2.79,.53-.77,1.12-1.5,1.76-2.2,0,0,.2,.08,.2,.08-.06,.94-.19,1.87-.38,2.79-.09,.45-.01,.98-.34,1.33-.31,.36-.7,.68-1.42,.87l-.2-.08h0Z"/></g><g><path class="cls-3" d="M50.23,99.69c-.71-1.66-1.42-3.32-2.14-4.99"/><path class="cls-3" d="M50.13,99.73c-1.45-.45-1.67-1.01-1.76-2.2-.2-.92-.32-1.85-.38-2.79,0,0,.2-.08,.2-.08,.64,.7,1.23,1.43,1.76,2.2,.26,.38,.7,.68,.73,1.16,.05,.47,.01,.98-.35,1.63l-.2,.08h0Z"/></g><path class="cls-4" d="M41.68,111.09c.12-1.1,5.33,.33,9.97-2.85,3.82-2.61,4.12-6.19,7.12-6.41,1.78-.13,3.41,.99,4.27,2.14,1.58,2.11,1.21,5.22,0,7.12-2.98,4.68-11.77,3.25-14.25,2.85-3.46-.56-7.22-1.91-7.12-2.85Z"/></g></svg>